<svg xmlns="http://www.w3.org/2000/svg" version="1.0" width="512.000000pt" height="512.000000pt" viewBox="0 0 512.000000 512.000000" preserveAspectRatio="xMidYMid meet" transform="matrix(1, 0, 0, 1, 0, 0)">

<g transform="translate(0.000000,512.000000) scale(0.100000,-0.100000)" fill="#458480" stroke="none">
<path d="M1022 4797 c-53 -20 -103 -66 -128 -121 l-24 -51 0 -2065 0 -2065 24 -51 c27 -58 80 -106 135 -123 55 -16 3007 -16 3062 0 55 17 108 65 135 123 l24 51 0 1661 c0 1457 -2 1666 -15 1705 -13 38 -82 111 -453 481 -364 364 -444 440 -481 453 -38 13 -181 15 -1145 14 -821 0 -1109 -4 -1134 -12z m2198 -512 c5 -390 5 -390 54 -443 50 -56 52 -57 451 -62 l370 -5 3 -1634 2 -1635 -22 -23 -21 -23 -1496 0 -1495 0 -23 22 -23 21 0 2056 0 2055 22 23 22 23 1075 -2 1076 -3 5 -370z" fill="#458480"/>
<path d="M1355 3895 c-30 -29 -32 -68 -5 -95 20 -20 33 -20 563 -20 532 0 544 0 562 20 26 29 24 79 -4 102 -22 17 -53 18 -558 18 l-534 0 -24 -25z" fill="#458480"/>
<path d="M1365 3278 c-11 -6 -23 -16 -27 -22 -14 -21 -8 -66 12 -86 19 -19 33 -20 365 -20 332 0 346 1 365 20 11 11 20 33 20 50 0 17 -9 39 -20 50 -19 19 -33 20 -357 20 -233 -1 -344 -4 -358 -12z" fill="#458480"/>
<path d="M2355 3265 c-30 -29 -32 -68 -5 -95 20 -20 33 -20 710 -20 677 0 690 0 710 20 29 29 26 74 -6 99 -26 21 -34 21 -706 21 l-679 0 -24 -25z" fill="#458480"/>
<path d="M1365 2728 c-11 -6 -23 -16 -27 -22 -14 -21 -8 -66 12 -86 20 -20 33 -20 1210 -20 1177 0 1190 0 1210 20 20 20 26 65 12 86 -4 6 -17 16 -29 23 -31 16 -2359 15 -2388 -1z" fill="#458480"/>
<path d="M1356 2169 c-32 -25 -35 -70 -6 -99 20 -20 33 -20 710 -20 677 0 690 0 710 20 27 27 25 66 -5 95 l-24 25 -679 0 c-672 0 -680 0 -706 -21z" fill="#458480"/>
<path d="M3040 2170 c-11 -11 -20 -33 -20 -50 0 -17 9 -39 20 -50 19 -19 33 -20 365 -20 332 0 346 1 365 20 29 29 26 74 -6 99 -26 20 -38 21 -365 21 -326 0 -340 -1 -359 -20z" fill="#458480"/>
<path d="M1356 1619 c-32 -25 -35 -70 -6 -99 20 -20 33 -20 1210 -20 1177 0 1190 0 1210 20 20 20 26 65 12 86 -22 33 -41 34 -1225 34 -1173 0 -1174 0 -1201 -21z" fill="#458480"/>
<path d="M3040 1070 c-11 -11 -20 -33 -20 -50 0 -17 9 -39 20 -50 19 -19 33 -20 365 -20 332 0 346 1 365 20 29 29 26 74 -6 99 -26 20 -38 21 -365 21 -326 0 -340 -1 -359 -20z" fill="#458480"/>
</g>
</svg>